<svg width="357" height="276" viewBox="0 0 357 276" fill="none" xmlns="http://www.w3.org/2000/svg">
<path d="M2.12132 139.574C0.949746 138.403 0.949747 136.503 2.12132 135.331L135.331 2.12131C136.503 0.949733 138.403 0.949737 139.574 2.12131L272.784 135.331C273.956 136.503 273.956 138.403 272.784 139.574L139.574 272.784C138.403 273.956 136.503 273.956 135.331 272.784L2.12132 139.574Z" fill="#263CFF" fill-opacity="0.45"/>
<path d="M42.3806 139.925C41.209 138.754 41.209 136.854 42.3806 135.683L175.591 2.47263C176.762 1.30105 178.662 1.30106 179.833 2.47263L313.043 135.683C314.215 136.854 314.215 138.754 313.043 139.925L179.833 273.136C178.662 274.307 176.762 274.307 175.591 273.136L42.3806 139.925Z" fill="#263CFF" fill-opacity="0.45"/>
<path d="M83.5749 139.574C82.4034 138.403 82.4034 136.503 83.5749 135.331L216.785 2.12131C217.957 0.949733 219.856 0.949737 221.028 2.12131L354.238 135.331C355.409 136.503 355.409 138.403 354.238 139.574L221.028 272.784C219.856 273.956 217.957 273.956 216.785 272.784L83.5749 139.574Z" fill="#263CFF" fill-opacity="0.45"/>
</svg>
